<?xml version="1.0" encoding="UTF-8"?>
<svg xmlns="http://www.w3.org/2000/svg" xmlns:xlink="http://www.w3.org/1999/xlink" width="361.333pt" height="107.333pt" viewBox="0 0 361.333 107.333">
<path fill-rule="evenodd" fill="rgb(12.5%, 17.999268%, 48.999023%)" fill-opacity="1" d="M 171.585938 28.089844 C 178.492188 28.089844 184.101562 34.046875 184.101562 41.382812 C 184.101562 48.714844 178.492188 54.585938 171.414062 54.585938 C 164.425781 54.585938 158.730469 48.628906 158.730469 41.292969 C 158.730469 33.871094 164.425781 28.089844 171.585938 28.089844 M 171.933594 11.089844 C 154.757812 11.089844 141.207031 24.378906 141.207031 41.382812 C 141.207031 58.125 154.757812 71.601562 171.585938 71.601562 C 188.15625 71.601562 201.621094 58.039062 201.621094 41.464844 C 201.621094 24.808594 188.242188 11.089844 171.933594 11.089844 M 112.699219 28.089844 L 115.722656 28.089844 C 117.878906 28.089844 119.023438 28.214844 119.949219 28.695312 C 121.183594 29.335938 121.933594 30.765625 121.933594 32.234375 C 121.933594 35.167969 120.035156 36.804688 116.582031 36.804688 L 115.203125 36.804688 L 115.203125 51.566406 L 123.488281 70.121094 L 141.4375 70.121094 L 131.601562 46.386719 C 136.777344 42.417969 139.195312 37.671875 139.195312 31.714844 C 139.195312 26.621094 137.058594 21.335938 133.5 17.90625 C 129.894531 14.433594 124.265625 12.554688 117.53125 12.554688 L 95.613281 12.554688 L 95.613281 70.121094 L 112.699219 70.121094 Z M 91.554688 12.554688 L 74.46875 12.554688 L 74.46875 49.320312 C 74.46875 52.945312 73.34375 54.585938 70.667969 54.585938 C 68.167969 54.585938 67.046875 52.945312 67.046875 49.320312 L 67.046875 12.554688 L 49.957031 12.554688 L 49.957031 49.320312 C 49.957031 55.792969 51 59.933594 53.496094 63.734375 C 56.78125 68.734375 62.816406 71.601562 69.980469 71.601562 C 83.097656 71.601562 91.554688 63.042969 91.554688 49.925781 Z M 44.554688 34.996094 L 35.148438 34.996094 C 31.527344 34.996094 30.316406 34.21875 30.316406 31.972656 C 30.316406 29.902344 31.609375 29.039062 34.71875 29.039062 L 45.679688 29.039062 L 45.679688 12.554688 L 30.746094 12.554688 C 19.355469 12.554688 12.710938 18.855469 12.710938 29.902344 L 12.710938 52.515625 C 12.710938 58.210938 14.527344 62.605469 18.0625 65.71875 C 21.777344 68.992188 25.398438 70.121094 32.214844 70.121094 L 45.679688 70.121094 L 45.679688 53.636719 L 34.113281 53.636719 C 31.265625 53.636719 31.179688 53.636719 30.402344 53.203125 C 29.625 52.773438 29.195312 51.824219 29.195312 50.789062 C 29.195312 49.839844 29.527344 48.957031 30.230469 48.457031 C 30.992188 47.921875 31.179688 47.855469 33.335938 47.855469 L 44.554688 47.855469 Z M 44.554688 34.996094 "/>
<path fill-rule="evenodd" fill="rgb(95.298767%, 83.099365%, 5.099487%)" fill-opacity="1" d="M 326.566406 94.859375 C 327.550781 86.414062 327.953125 80.023438 327.953125 72.734375 C 327.953125 69.117188 327.878906 66.097656 327.550781 60.925781 C 330.742188 60.925781 334.515625 60.609375 336.886719 60.117188 C 336.96875 57.976562 337.058594 56.832031 337.058594 55.113281 C 337.058594 50.28125 336.726562 45.695312 336.148438 41.347656 C 327.308594 40.769531 321.65625 40.609375 313.457031 40.609375 C 306.410156 40.609375 302.96875 40.769531 297.566406 41.261719 C 296.316406 47.570312 295.90625 51.101562 295.90625 56.011719 C 295.90625 57.734375 295.996094 58.882812 296.066406 60.519531 C 298.222656 60.925781 303.046875 61.339844 306.496094 61.339844 C 305.917969 70.105469 305.757812 75.027344 305.757812 80.269531 C 305.757812 85.597656 305.917969 88.78125 306.410156 93.78125 C 311.816406 94.535156 316.898438 94.859375 324.515625 94.859375 Z M 270.132812 67.605469 C 271.199219 67.1875 276.449219 66.609375 278.078125 69.425781 C 279.171875 71.316406 279.222656 73.996094 278.996094 76.632812 C 278.832031 78.507812 275.03125 79.449219 271.347656 80.269531 Z M 271.253906 92.890625 L 271.253906 87.476562 C 274.371094 91.164062 276.589844 94.273438 279.535156 98.960938 C 286.003906 95.355469 291.09375 92.066406 296.660156 88.042969 C 294.449219 84.277344 292.816406 81.816406 290.273438 78.382812 C 293.871094 72.8125 295.34375 68.464844 295.34375 63.554688 C 295.34375 56.171875 291.417969 49.296875 285.109375 45.695312 C 278.464844 41.917969 269.871094 40.03125 259.539062 40.03125 C 257.257812 40.03125 255.613281 40.117188 252.496094 40.277344 C 250.535156 51.746094 249.714844 61.589844 249.714844 74.691406 C 249.714844 82.558594 249.957031 87.476562 250.785156 94.273438 C 254.796875 94.535156 257.5 94.613281 262.253906 94.613281 C 266.339844 94.613281 268.0625 94.535156 271.347656 94.273438 Z M 213.574219 94.613281 C 216.605469 94.457031 224.859375 92.375 227.234375 91.304688 C 227.074219 88.269531 224.15625 83.761719 223.003906 80.976562 C 219.566406 82.210938 214.152344 84.277344 212.023438 84.773438 C 212.679688 87.398438 213.332031 91.484375 213.574219 94.613281 M 225.050781 35.941406 C 211.535156 48.472656 198.175781 64.207031 188.003906 79.609375 C 193.664062 87.800781 197.929688 92.398438 204.648438 97.40625 C 207.769531 89.523438 214.3125 78.628906 219.726562 72.480469 C 223.65625 79.851562 226.769531 88.625 228.660156 97.570312 C 236.277344 92.480469 243.394531 86.085938 248.976562 79.285156 C 242.171875 61.746094 233.816406 46.675781 225.050781 35.941406 "/>
<path fill-rule="nonzero" fill="rgb(12.5%, 17.999268%, 48.999023%)" fill-opacity="1" d="M 324.191406 92.203125 C 326.488281 81.820312 326.46875 71.507812 324.890625 61.097656 C 324.796875 59.683594 326.132812 58.269531 327.546875 58.269531 L 327.570312 58.269531 C 329.390625 58.269531 331.246094 58.175781 333.058594 57.988281 L 333.070312 57.988281 C 333.5 57.945312 333.917969 57.894531 334.320312 57.84375 C 335.703125 53.039062 335.195312 48.382812 333.78125 43.867188 C 322.394531 42.421875 310.914062 42.015625 299.792969 43.734375 C 297.859375 48.707031 297.859375 53.410156 298.621094 58.207031 C 298.65625 58.210938 298.691406 58.214844 298.722656 58.21875 C 301.015625 58.476562 304.085938 58.679688 306.492188 58.679688 C 307.910156 58.679688 309.246094 60.089844 309.152344 61.503906 C 307.648438 71.640625 306.480469 81.8125 308.855469 91.421875 C 313.816406 93.296875 318.933594 93.550781 324.191406 92.203125 M 273.019531 69.910156 L 273.691406 76.96875 C 274.148438 76.839844 276.308594 76.679688 276.335938 76.402344 C 276.601562 73.34375 277.003906 69.914062 273.019531 69.910156 M 281.652344 76.859375 C 280.492188 81.417969 275.988281 81.535156 272.109375 81.964844 C 270.265625 82.289062 269.042969 81.109375 268.898438 79.628906 L 267.496094 67.84375 C 267.824219 60.941406 284.113281 63.851562 281.652344 76.859375 M 268.601562 91.898438 L 268.601562 87.476562 C 268.601562 85.136719 271.773438 83.96875 273.285156 85.761719 C 275.875 88.828125 278.230469 92.054688 280.414062 95.414062 C 285.386719 93.765625 289.707031 91.171875 293.128906 87.308594 C 291.578125 84.78125 289.898438 82.34375 288.140625 79.960938 C 287.628906 79.269531 287.582031 77.65625 288.042969 76.9375 C 290.699219 72.839844 292.6875 68.515625 292.6875 63.550781 L 292.6875 63.546875 C 293.75 43.390625 269.855469 41.015625 254.765625 42.832031 C 251.191406 59.011719 250.3125 75.71875 253.164062 91.75 C 258.53125 94.613281 266.230469 93.683594 268.601562 91.898438 M 225.761719 89.257812 C 225.097656 87.0625 224.550781 84.1875 223.507812 82.113281 C 220.589844 83.1875 215.625 84.597656 213.058594 86.300781 C 213.421875 88.183594 214.214844 90.117188 214.484375 92.234375 C 218.28125 91.527344 222.070312 90.375 225.761719 89.257812 M 219.1875 77.351562 C 218.472656 78.292969 217.753906 79.289062 217.039062 80.328125 C 217.804688 80.050781 218.585938 79.765625 219.339844 79.492188 C 219.578125 79.402344 219.8125 79.316406 220.042969 79.234375 C 219.773438 78.621094 219.488281 77.996094 219.1875 77.351562 M 224.761719 39.847656 C 210.808594 50.863281 199.136719 64.039062 191.214844 79.574219 C 194.25 85.332031 198.257812 89.878906 203.566406 93.191406 C 207.214844 85.234375 211.945312 77.296875 217.730469 70.726562 C 219.234375 69.125 220.953125 70.503906 222.632812 73.222656 C 226.320312 79.199219 229.804688 91.660156 230.351562 93.132812 C 236.894531 90.078125 242.078125 85.144531 245.929688 78.78125 C 240.804688 63.839844 235.804688 51.324219 224.761719 39.847656 M 223.300781 33.945312 L 223.304688 33.945312 C 224.335938 33.042969 226.242188 33.207031 227.105469 34.265625 C 235.378906 44.394531 241.796875 56.0625 247.125 67.964844 C 247.355469 58.511719 248.28125 49.160156 249.878906 39.835938 C 250.054688 38.8125 251.328125 37.675781 252.363281 37.621094 C 266.375 36.886719 284.523438 37.367188 293.53125 49.785156 C 293.832031 46.75 294.363281 43.746094 294.953125 40.757812 C 295.136719 39.824219 296.371094 38.710938 297.324219 38.628906 C 310.253906 37.453125 323.378906 37.851562 336.316406 38.6875 C 337.382812 38.757812 338.640625 39.941406 338.78125 41.003906 C 339.144531 43.746094 341.960938 61.769531 337.417969 62.707031 C 335.136719 63.179688 332.703125 63.414062 330.371094 63.523438 C 330.933594 74.113281 330.429688 84.632812 329.203125 95.164062 C 329.066406 96.332031 327.738281 97.523438 326.566406 97.523438 C 319.699219 97.523438 312.859375 97.359375 306.046875 96.414062 C 305.039062 96.273438 303.871094 95.054688 303.769531 94.046875 C 302.78125 84.003906 303.046875 73.984375 303.65625 63.925781 C 301.769531 63.839844 299.78125 63.683594 298.140625 63.496094 C 298.097656 63.492188 298.050781 63.484375 298.007812 63.480469 C 298.007812 63.503906 298.007812 63.523438 298.007812 63.546875 L 298.007812 63.550781 C 298.007812 68.910156 296.195312 73.730469 293.464844 78.265625 C 295.433594 80.992188 297.242188 83.808594 298.945312 86.710938 C 299.550781 87.746094 299.183594 89.5 298.207031 90.199219 C 292.613281 94.230469 286.851562 97.921875 280.824219 101.277344 C 279.730469 101.886719 277.957031 101.433594 277.292969 100.375 C 276.03125 98.375 274.917969 96.675781 273.824219 95.121094 C 273.441406 96.0625 272.519531 96.859375 271.546875 96.9375 C 264.722656 98.378906 257.699219 98.332031 250.609375 96.9375 C 249.527344 96.867188 248.265625 95.667969 248.136719 94.589844 C 247.726562 91.15625 247.453125 88.222656 247.289062 85.234375 C 242.15625 90.726562 236.378906 95.59375 230.132812 99.769531 L 230.132812 99.777344 L 230.128906 99.78125 C 228.617188 100.789062 226.433594 99.890625 226.054688 98.105469 C 225.824219 96.996094 225.566406 95.886719 225.296875 94.78125 C 221.660156 95.878906 217.609375 97.054688 213.769531 97.277344 L 213.757812 97.277344 C 213.742188 97.277344 213.726562 97.277344 213.714844 97.277344 C 212.414062 97.347656 211.019531 96.121094 210.917969 94.828125 C 210.828125 93.664062 210.683594 92.394531 210.507812 91.132812 C 210.449219 91.246094 210.390625 91.355469 210.335938 91.464844 C 209.671875 92.734375 209.074219 93.933594 208.558594 95.042969 C 208.039062 96.160156 207.554688 97.277344 207.125 98.375 L 207.109375 98.390625 C 206.488281 99.941406 204.394531 100.53125 203.058594 99.535156 C 196.113281 94.355469 190.734375 88.21875 185.820312 81.117188 C 185.347656 80.433594 185.332031 78.839844 185.789062 78.144531 C 196.40625 62.070312 209.09375 47.113281 223.238281 34 Z M 223.300781 33.945312 "/>
<path fill-rule="nonzero" fill="rgb(12.5%, 17.999268%, 48.999023%)" fill-opacity="1" d="M 344.890625 16.863281 L 345.550781 16.863281 C 346.539062 16.863281 346.976562 16.425781 346.976562 15.875 C 346.976562 15.214844 346.429688 14.941406 345.660156 14.941406 C 345.382812 14.941406 345.109375 14.996094 344.890625 14.996094 Z M 344.78125 21.753906 L 341.757812 21.753906 L 341.757812 13.183594 C 342.308594 13.128906 343.902344 12.855469 345.824219 12.855469 C 347.96875 12.855469 348.84375 13.128906 349.503906 13.570312 C 350.054688 13.953125 350.4375 14.613281 350.4375 15.4375 C 350.4375 16.261719 349.613281 17.082031 348.351562 17.359375 L 348.351562 17.46875 C 349.394531 17.796875 349.945312 18.511719 350.21875 19.722656 C 350.496094 20.984375 350.710938 21.480469 350.824219 21.753906 L 347.472656 21.753906 C 347.195312 21.421875 347.03125 20.710938 346.867188 20.050781 C 346.757812 19.226562 346.316406 18.84375 345.550781 18.84375 L 344.78125 18.84375 Z M 345.769531 10.328125 C 341.921875 10.328125 339.011719 13.457031 339.011719 17.414062 C 339.011719 21.367188 341.921875 24.5 345.824219 24.5 C 349.78125 24.554688 352.691406 21.367188 352.691406 17.359375 C 352.691406 13.457031 349.78125 10.328125 345.824219 10.328125 Z M 345.933594 7.746094 C 351.425781 7.746094 355.820312 12.085938 355.820312 17.359375 C 355.820312 22.742188 351.425781 27.082031 345.878906 27.082031 C 340.332031 27.082031 335.824219 22.742188 335.824219 17.359375 C 335.824219 12.085938 340.332031 7.746094 345.878906 7.746094 Z M 345.933594 7.746094 "/>
</svg>
